name Walk10.mot
datacolumns 19
datarows 17
range 3.13000000 3.21000000
endheader

                time	   L_ground_force_vx	   L_ground_force_vy	   L_ground_force_vz	   L_ground_force_px	   L_ground_force_py	   L_ground_force_pz	   R_ground_force_vx	   R_ground_force_vy	   R_ground_force_vz	   R_ground_force_px	   R_ground_force_py	   R_ground_force_pz	   L_ground_torque_x	   L_ground_torque_y	   L_ground_torque_z	   R_ground_torque_x	   R_ground_torque_y	   R_ground_torque_z	
          3.13000000	         19.91436494	        736.92951794	         42.41997257	         -0.15133938	          0.00000000	         -0.05815007	         -0.01047524	          0.23599440	          0.00077714	          0.00036301	          0.00000000	          0.00008819	          0.00000000	          0.12480215	          0.00000000	          0.00000000	          0.00182912	          0.00000000	
          3.13500000	         22.96411697	        746.31755841	         43.32018393	         -0.14949659	          0.00000000	         -0.05823964	         -0.01846010	          0.30168435	          0.00164119	          0.00043131	          0.00000000	          0.00010425	          0.00000000	          0.05606390	          0.00000000	          0.00000000	          0.00321010	          0.00000000	
          3.14000000	         26.28719244	        756.08374722	         44.18702870	         -0.14781018	          0.00000000	         -0.05829881	         -0.02863488	          0.36691378	          0.00278616	          0.00048462	          0.00000000	          0.00011643	          0.00000000	         -0.00620338	          0.00000000	          0.00000000	          0.00496767	          0.00000000	
          3.14500000	         29.88051853	        766.17967775	         44.99088866	         -0.14627980	          0.00000000	         -0.05832699	         -0.04096973	          0.42338045	          0.00422798	          0.00050799	          0.00000000	          0.00012107	          0.00000000	         -0.06460944	          0.00000000	          0.00000000	          0.00709575	          0.00000000	
          3.15000000	         33.73986712	        776.54302368	         45.70161771	         -0.14490071	          0.00000000	         -0.05832565	         -0.05515174	          0.45921872	          0.00595491	          0.00048179	          0.00000000	          0.00011337	          0.00000000	         -0.12203284	          0.00000000	          0.00000000	          0.00953912	          0.00000000	
          3.15500000	         37.86194429	        787.09807707	         46.29819698	         -0.14366598	          0.00000000	         -0.05829780	         -0.07046511	          0.45846964	          0.00791345	          0.00038151	          0.00000000	          0.00008738	          0.00000000	         -0.18117510	          0.00000000	          0.00000000	          0.01217282	          0.00000000	
          3.16000000	         42.24406081	        797.75619974	         46.77111971	         -0.14256628	          0.00000000	         -0.05824751	         -0.08565415	          0.40075936	          0.00999159	          0.00017808	          0.00000000	          0.00003608	          0.00000000	         -0.24369582	          0.00000000	          0.00000000	          0.01477850	          0.00000000	
          3.16500000	         46.88117202	        808.41655006	         47.12122742	         -0.14159082	          0.00000000	         -0.05817794	         -0.09877607	          0.26134224	          0.01199996	         -0.00016110	          0.00000000	         -0.00004837	          0.00000000	         -0.31025580	          0.00000000	          0.00000000	          0.01701916	          0.00000000	
          3.17000000	         51.76102237	        818.96803690	         47.35886676	         -0.14072834	          0.00000000	         -0.05809158	         -0.10705626	          0.01170716	          0.01365184	         -0.00067015	          0.00000000	         -0.00017409	          0.00000000	         -0.38039560	          0.00000000	          0.00000000	          0.01841424	          0.00000000	
          3.17500000	         56.86128199	        829.29182666	         47.50270439	         -0.13996638	          0.00000000	         -0.05799046	         -0.10676517	         -0.37901253	          0.01454410	         -0.00138130	          0.00000000	         -0.00034866	          0.00000000	         -0.45277069	          0.00000000	          0.00000000	          0.01831872	          0.00000000	
          3.18000000	         62.15184728	        839.26377662	         47.57857195	         -0.13929169	          0.00000000	         -0.05787689	         -0.09314411	         -0.94154999	          0.01414177	         -0.00231989	          0.00000000	         -0.00057790	          0.00000000	         -0.52501402	          0.00000000	          0.00000000	          0.01591056	          0.00000000	
          3.18500000	         67.60014735	        848.75648493	         47.61552010	         -0.13869056	          0.00000000	         -0.05775387	         -0.06041643	         -1.70263995	          0.01177031	         -0.00349742	          0.00000000	         -0.00086408	          0.00000000	         -0.59382930	          0.00000000	          0.00000000	          0.01019309	          0.00000000	
          3.19000000	         73.17154363	        857.64214079	         47.64189048	         -0.13814906	          0.00000000	         -0.05762486	         -0.00193050	         -2.67948488	          0.00662069	         -0.00490229	          0.00000000	         -0.00120379	          0.00000000	         -0.65588161	          0.00000000	          0.00000000	          0.00002030	          0.00000000	
          3.19500000	         78.82818194	        865.79727579	         47.68522681	         -0.13765218	          0.00000000	         -0.05749409	          0.08950936	         -3.87230131	         -0.00222604	         -0.00648843	          0.00000000	         -0.00158506	          0.00000000	         -0.70771609	          0.00000000	          0.00000000	         -0.01584546	          0.00000000	
          3.20000000	         84.53189706	        873.10730448	         47.77123228	         -0.13718513	          0.00000000	         -0.05736528	          0.22105980	         -5.25479156	         -0.01574692	         -0.00816162	          0.00000000	         -0.00198413	          0.00000000	         -0.74610587	          0.00000000	          0.00000000	         -0.03863200	          0.00000000	
          3.20500000	         90.24499583	        879.46642299	         47.92076337	         -0.13673547	          0.00000000	         -0.05724134	          0.39893400	         -6.76255546	         -0.03488907	         -0.00976421	          0.00000000	         -0.00236173	          0.00000000	         -0.76853467	          0.00000000	          0.00000000	         -0.06940046	          0.00000000	
          3.21000000	         95.93080049	        884.77492216	         48.14807175	         -0.13629210	          0.00000000	         -0.05712486	          0.62710767	         -8.27971890	         -0.06043614	         -0.01105904	          0.00000000	         -0.00265928	          0.00000000	         -0.77311697	          0.00000000	          0.00000000	         -0.10882115	          0.00000000	
